<svg width="125" height="21" viewBox="0 0 250 42" fill="none" xmlns="http://www.w3.org/2000/svg" style="fill: white;">
<g clip-path="url(#clip0_227_11481)">
<path d="M153.2 26.33C152 26.33 151.053 26.07 150.358 25.55C149.663 25.03 149.268 24.285 149.175 23.3125C149.158 23.17 149.213 23.1 149.34 23.1H151.01C151.108 23.1 151.17 23.1575 151.195 23.275C151.3 23.785 151.51 24.1525 151.828 24.3725C152.145 24.595 152.603 24.705 153.198 24.705C153.69 24.705 154.083 24.6 154.38 24.39C154.678 24.18 154.823 23.9 154.823 23.55C154.823 23.2175 154.718 22.965 154.505 22.7925C154.293 22.62 153.935 22.4875 153.43 22.395L152.083 22.155C151.16 21.9825 150.478 21.67 150.038 21.2175C149.598 20.765 149.378 20.14 149.378 19.34C149.378 18.465 149.7 17.7675 150.348 17.245C150.993 16.7225 151.865 16.46 152.96 16.46C154.055 16.46 154.885 16.7025 155.528 17.19C156.168 17.675 156.54 18.365 156.645 19.2575C156.65 19.32 156.638 19.37 156.603 19.41C156.568 19.45 156.525 19.47 156.468 19.47H154.805C154.7 19.47 154.633 19.4125 154.603 19.295C154.51 18.865 154.335 18.555 154.078 18.3675C153.82 18.18 153.448 18.085 152.96 18.085C152.473 18.085 152.093 18.1825 151.833 18.375C151.575 18.57 151.445 18.85 151.445 19.22C151.445 19.5275 151.538 19.7725 151.723 19.955C151.908 20.1375 152.243 20.27 152.728 20.3575L154.168 20.625C155.183 20.81 155.89 21.1175 156.29 21.5475C156.69 21.9775 156.89 22.61 156.89 23.44C156.89 24.37 156.57 25.0825 155.93 25.5825C155.29 26.08 154.38 26.33 153.198 26.33H153.2Z" />
<path d="M165.96 26.33C164.525 26.33 163.365 25.8775 162.475 24.9725C161.585 24.0675 161.14 22.8825 161.14 21.4175C161.14 19.9525 161.585 18.7525 162.477 17.835C163.37 16.9175 164.53 16.46 165.957 16.46C167.385 16.46 168.575 16.9175 169.47 17.835C170.365 18.7525 170.812 19.945 170.812 21.4175C170.812 22.89 170.365 24.0675 169.47 24.9725C168.575 25.8775 167.402 26.33 165.957 26.33H165.96ZM163.272 21.42C163.272 22.4225 163.51 23.21 163.987 23.7775C164.465 24.3475 165.122 24.6325 165.957 24.6325C166.792 24.6325 167.465 24.3475 167.952 23.775C168.437 23.2025 168.682 22.4175 168.682 21.42C168.682 20.4225 168.44 19.6175 167.957 19.0375C167.475 18.46 166.807 18.17 165.96 18.17C165.112 18.17 164.465 18.46 163.99 19.0375C163.512 19.615 163.275 20.41 163.275 21.42H163.272Z" />
<path d="M178.277 26.22C177.385 26.22 176.705 25.9875 176.237 25.5175C175.77 25.05 175.535 24.37 175.535 23.4775V12.7975C175.535 12.7425 175.552 12.695 175.59 12.66C175.627 12.6225 175.672 12.605 175.727 12.605H177.445C177.567 12.605 177.63 12.67 177.63 12.8V24.56H179.392C179.515 24.56 179.577 24.6225 179.577 24.745V26.0375C179.577 26.16 179.515 26.2225 179.392 26.2225H178.275L178.277 26.22Z" />
<path d="M188.047 26.33C185.24 26.33 183.837 24.905 183.837 22.055V16.765C183.837 16.6425 183.9 16.58 184.022 16.58H185.74C185.87 16.58 185.935 16.6425 185.935 16.765V22.36C185.935 23.0975 186.117 23.6625 186.48 24.05C186.842 24.4375 187.367 24.6325 188.05 24.6325C189.477 24.6325 190.192 23.875 190.192 22.3625V16.7675C190.192 16.645 190.255 16.5825 190.377 16.5825H192.105C192.227 16.5825 192.29 16.645 192.29 16.7675V22.0575C192.29 24.9075 190.877 26.3325 188.052 26.3325L188.047 26.33Z" />
<path d="M201.202 26.22C200.31 26.22 199.63 25.9875 199.163 25.5175C198.695 25.05 198.46 24.37 198.46 23.4775V18.2425H196.818C196.763 18.2425 196.715 18.225 196.68 18.1875C196.645 18.15 196.625 18.105 196.625 18.05V16.7675C196.625 16.645 196.69 16.5825 196.82 16.5825H198.462V13.9325C198.462 13.8025 198.525 13.7375 198.648 13.7375H200.375C200.497 13.7375 200.56 13.8025 200.56 13.9325V16.5825H202.887C203.017 16.5825 203.083 16.645 203.083 16.7675V18.05C203.083 18.105 203.065 18.1525 203.027 18.1875C202.99 18.2225 202.945 18.2425 202.89 18.2425H200.562V24.5575H202.89C203.02 24.5575 203.085 24.62 203.085 24.7425V26.035C203.085 26.1575 203.02 26.22 202.89 26.22H201.21H201.202Z" />
<path d="M207.742 14.7275V12.6875C207.742 12.5575 207.805 12.4925 207.927 12.4925H209.967C210.022 12.4925 210.07 12.51 210.105 12.5475C210.14 12.585 210.16 12.63 210.16 12.685V14.725C210.16 14.8475 210.095 14.91 209.965 14.91H207.925C207.802 14.91 207.74 14.8475 207.74 14.725L207.742 14.7275ZM208.085 26.22C207.955 26.22 207.89 26.1575 207.89 26.035V16.7675C207.89 16.645 207.955 16.5825 208.085 16.5825H209.802C209.925 16.5825 209.987 16.645 209.987 16.7675V26.035C209.987 26.1575 209.925 26.22 209.802 26.22H208.085Z" />
<path d="M219.532 26.33C218.097 26.33 216.937 25.8775 216.047 24.9725C215.157 24.0675 214.712 22.8825 214.712 21.4175C214.712 19.9525 215.157 18.7525 216.05 17.835C216.942 16.9175 218.102 16.46 219.53 16.46C220.957 16.46 222.147 16.9175 223.042 17.835C223.937 18.7525 224.385 19.945 224.385 21.4175C224.385 22.89 223.937 24.0675 223.042 24.9725C222.147 25.8775 220.975 26.33 219.53 26.33H219.532ZM216.845 21.42C216.845 22.4225 217.082 23.21 217.56 23.7775C218.037 24.3475 218.695 24.6325 219.53 24.6325C220.365 24.6325 221.037 24.3475 221.525 23.775C222.01 23.2025 222.255 22.4175 222.255 21.42C222.255 20.4225 222.012 19.6175 221.53 19.0375C221.047 18.46 220.38 18.17 219.532 18.17C218.685 18.17 218.037 18.46 217.562 19.0375C217.085 19.615 216.847 20.41 216.847 21.42H216.845Z" />
<path d="M229.3 26.22C229.17 26.22 229.105 26.1575 229.105 26.035V16.7675C229.105 16.645 229.17 16.5825 229.3 16.5825H230.925C231.047 16.5825 231.11 16.645 231.11 16.7675V18.05H231.185C231.892 16.9925 232.907 16.4625 234.232 16.4625C235.335 16.4625 236.177 16.8325 236.762 17.57C237.347 18.3075 237.64 19.3875 237.64 20.81V26.035C237.64 26.1575 237.575 26.22 237.445 26.22H235.727C235.597 26.22 235.532 26.1575 235.532 26.035V20.81C235.532 19.9175 235.36 19.2675 235.015 18.8575C234.67 18.4475 234.125 18.2425 233.38 18.2425C232.635 18.2425 232.085 18.45 231.732 18.865C231.377 19.28 231.202 19.9275 231.202 20.8075V26.0325C231.202 26.155 231.14 26.2175 231.017 26.2175H229.3V26.22Z" />
<path d="M246.307 26.33C245.107 26.33 244.16 26.07 243.465 25.55C242.77 25.03 242.375 24.285 242.282 23.3125C242.265 23.17 242.32 23.1 242.447 23.1H244.117C244.215 23.1 244.277 23.1575 244.302 23.275C244.407 23.785 244.617 24.1525 244.935 24.3725C245.252 24.595 245.71 24.705 246.305 24.705C246.797 24.705 247.192 24.6 247.487 24.39C247.782 24.18 247.93 23.9 247.93 23.55C247.93 23.2175 247.825 22.965 247.612 22.7925C247.4 22.62 247.042 22.4875 246.537 22.395L245.19 22.155C244.267 21.9825 243.585 21.67 243.145 21.2175C242.705 20.765 242.485 20.14 242.485 19.34C242.485 18.465 242.807 17.7675 243.455 17.245C244.1 16.7225 244.972 16.46 246.067 16.46C247.162 16.46 247.992 16.7025 248.635 17.19C249.275 17.675 249.647 18.365 249.752 19.2575C249.757 19.32 249.745 19.37 249.71 19.41C249.675 19.45 249.632 19.47 249.575 19.47H247.912C247.807 19.47 247.74 19.4125 247.71 19.295C247.617 18.865 247.442 18.555 247.185 18.3675C246.927 18.18 246.555 18.085 246.067 18.085C245.58 18.085 245.2 18.1825 244.94 18.375C244.682 18.57 244.552 18.85 244.552 19.22C244.552 19.5275 244.645 19.7725 244.83 19.955C245.015 20.1375 245.35 20.27 245.835 20.3575L247.275 20.625C248.29 20.81 248.997 21.1175 249.397 21.5475C249.797 21.9775 249.997 22.61 249.997 23.44C249.997 24.37 249.677 25.0825 249.037 25.5825C248.397 26.08 247.487 26.33 246.305 26.33H246.307Z" />
<path d="M68.3126 41.6325C56.8801 41.6325 47.5801 32.3325 47.5801 20.9C47.5801 9.46748 56.8826 0.16748 68.3126 0.16748C79.7426 0.16748 89.0451 9.46748 89.0451 20.9C89.0451 32.3325 79.7451 41.6325 68.3126 41.6325ZM68.3126 7.37998C60.8576 7.37998 54.7926 13.445 54.7926 20.9C54.7926 28.355 60.8576 34.42 68.3126 34.42C75.7676 34.42 81.8326 28.355 81.8326 20.9C81.8326 13.445 75.7676 7.37998 68.3126 7.37998Z" />
<path d="M136.628 38.0275H129.415V20.9C129.415 13.445 123.35 7.37998 115.895 7.37998C108.44 7.37998 102.375 13.445 102.375 20.9V38.0275H95.1626V20.9C95.1626 9.46748 104.463 0.16748 115.895 0.16748C127.328 0.16748 136.628 9.46748 136.628 20.9V38.0275Z" />
<path d="M41.465 20.9C41.465 9.46748 32.165 0.16748 20.7325 0.16748C9.3 0.16748 0 9.46748 0 20.9C0 32.3325 9.3 41.6325 20.7325 41.6325C25.895 41.6325 30.62 39.73 34.2525 36.5975V41.8325H41.465V21H41.4625C41.4625 20.9675 41.465 20.9325 41.465 20.9ZM20.7325 34.42C13.2775 34.42 7.2125 28.355 7.2125 20.9C7.2125 13.445 13.2775 7.37998 20.7325 7.37998C28.1875 7.37998 34.2525 13.445 34.2525 20.9C34.2525 28.355 28.1875 34.42 20.7325 34.42Z" />
</g>
<defs>
<clipPath id="clip0_227_11481">
<rect width="250" height="41.665" transform="translate(0 0.16748)"/>
</clipPath>
</defs>
</svg>

