<svg xmlns:xlink="http://www.w3.org/1999/xlink" class="__nav_first_d_logotipo" xmlns="http://www.w3.org/2000/svg" viewBox="0 0 317.59 38.63" width="317.59"  height="38.63" ><g id="Capa_1-2"><g><path class="cls-1" d="M173.39,5.71l-15.68,15.68c-1.79,1.79-2.79,4.21-2.79,6.74v7.7c-7.17-2.06-12.42-8.67-12.42-16.51,0-4.67,1.86-8.9,4.88-12v7.35h4.74c1.7,0,3.33-.67,4.53-1.88l5.48-5.48h-14.74c3.12-3.2,7.47-5.18,12.29-5.18,2.26,0,4.42,.44,6.4,1.23l1.63-1.63c-3.21-1.47-6.82-2.04-10.51-1.59-3.35,.42-6.56,1.73-9.23,3.79-5.59,4.31-8.37,11.04-7.43,18.04,.44,3.28,1.74,6.41,3.76,9.03,4.31,5.59,11.02,8.37,18.02,7.45,3.29-.43,6.44-1.74,9.07-3.77,4.88-3.76,7.61-9.36,7.61-15.38,0-5.14-1.99-9.96-5.61-13.61m-8.96,30.12V14.67h7.45V7.22c3.08,3.11,4.98,7.38,4.98,12.09,0,7.84-5.25,14.45-12.43,16.51" fill="#0A0C2A"></path><g><path class="cls-1" d="M2.11,30.28H0L8.86,7.96h1.75l8.83,22.33h-2.24l-2.77-7.15H4.87l-2.77,7.15Zm3.39-8.79H13.76l-3.36-8.73c-.23-.63-.56-1.65-.69-2.24h-.13c-.13,.59-.46,1.61-.69,2.24l-3.39,8.73Z" fill="#0A0C2A"></path><path class="cls-1" d="M25.12,7.96h2.34l6.42,10.8,6.45-10.8h2.21l-7.74,12.58v9.75h-1.98v-9.75l-7.71-12.58Z" fill="#0A0C2A"></path><path class="cls-1" d="M63.78,27.09c1.22-1.45,1.51-3.75,1.51-6.92V7.96h1.94v12.74c0,3.33-.4,5.27-1.25,6.75-1.45,2.4-4.12,3.23-7.24,3.23-2.93,0-5.76-.72-7.28-3.23-.89-1.51-1.25-3.52-1.25-6.75V7.96h1.98v12.22c0,3.29,.33,5.53,1.55,6.92,1.02,1.22,2.77,1.84,5.07,1.84s3.98-.63,4.97-1.84Z" fill="#0A0C2A"></path><path class="cls-1" d="M77.9,7.99c1.51-.07,3.1-.1,4.41-.1,6.95,0,13.37,2.96,13.37,11.03,0,7.31-5.07,11.43-13.21,11.43-1.42,0-3-.03-4.58-.1V7.99Zm1.98,20.68c1.22,.07,2.24,.07,3.29,.07,5.73,0,10.44-3.23,10.44-9.78,0-6.98-5.7-9.52-10.97-9.52-.89,0-1.88,0-2.77,.03V28.67Z" fill="#0A0C2A"></path><path class="cls-1" d="M105.2,30.28h-2.11l8.86-22.33h1.75l8.83,22.33h-2.24l-2.77-7.15h-9.55l-2.77,7.15Zm3.39-8.79h8.27l-3.36-8.73c-.23-.63-.56-1.65-.69-2.24h-.13c-.13,.59-.46,1.61-.69,2.24l-3.39,8.73Z" fill="#0A0C2A"></path></g><g><path class="cls-1" d="M196.09,30.28V7.99c1.75-.07,3.89-.1,5.3-.1,5.17,0,8.53,1.91,8.53,6.42s-3.33,6.49-8.23,6.49c-.99,0-2.37-.03-3.62-.07v9.55h-1.98Zm1.98-11.13c1.25,.03,2.6,.03,3.56,.03,3.89,0,6.22-1.55,6.22-4.84s-2.37-4.84-6.49-4.84c-.99,0-2.11,0-3.29,.03v9.62Z" fill="#0A0C2A"></path><path class="cls-1" d="M217.59,7.96h2.34l6.42,10.8,6.45-10.8h2.21l-7.74,12.58v9.75h-1.98v-9.75l-7.71-12.58Z" fill="#0A0C2A"></path><path class="cls-1" d="M245.61,7.96h2.47l7.84,19.66h.13l7.84-19.66h2.47l1.19,22.33h-1.98l-.76-16c-.07-1.58-.1-2.63-.07-3.79h-.1l-7.87,19.79h-1.68l-7.84-19.79h-.13c.03,1.15,.03,2.21-.03,3.79l-.76,16h-1.88l1.15-22.33Z" fill="#0A0C2A"></path><path class="cls-1" d="M281.96,17.93h9.32v1.65h-9.32v9.02h11.43v1.68h-13.4V7.96h12.58v1.68h-10.6v8.3Z" fill="#0A0C2A"></path><path class="cls-1" d="M303.59,27.45c1.55,.99,3.98,1.55,5.93,1.55,3.29,0,6.09-1.65,6.09-4.68,0-2.54-1.94-3.62-4.54-4.41l-1.09-.33c-3.69-1.12-6.16-2.63-6.16-5.99,0-3.95,3.46-5.99,7.51-5.99,1.65,0,3.72,.33,5.07,1.02l-.2,1.84c-1.32-.66-3.26-1.15-5.01-1.15-2.9,0-5.37,1.35-5.37,4.15,0,2.24,1.55,3.33,4.38,4.15l1.12,.33c3.72,1.09,6.26,2.73,6.26,6.19,0,4.22-3.69,6.59-8.1,6.59-1.81,0-4.45-.4-6.13-1.38l.23-1.88Z" fill="#0A0C2A"></path></g></g></g></svg>