<svg xmlns:xlink="http://www.w3.org/1999/xlink" xmlns="http://www.w3.org/2000/svg" id="Capa_1" data-name="Capa 1" version="1.1" viewBox="0 0 257.5 122.3" width="257.5"  height="122.3" >
  <defs>
    <style>
      .cls-1 {
        isolation: isolate;
      }

      .cls-2 {
        fill: #fff;
        stroke-width: 0px;
      }
    </style>
  </defs>
  <g class="cls-1">
    <path class="cls-2" d="M119,54.8v4.4h4.8v1.4h-4.8v4.5h5.4v1.4h-7.1v-13.2h7.1v1.4h-5.4Z"/>
    <path class="cls-2" d="M128.9,66.2c-.7-.3-1.2-.7-1.6-1.3-.4-.5-.6-1.2-.6-1.9h1.8c0,.6.3,1.1.8,1.6s1.1.6,2,.6,1.5-.2,1.9-.6.7-.9.7-1.6-.1-.9-.4-1.2c-.3-.3-.6-.6-1-.7-.4-.2-1-.3-1.7-.5-.9-.2-1.6-.5-2.1-.7-.5-.2-1-.6-1.3-1.1s-.6-1.1-.6-2,.2-1.4.5-1.9.9-1,1.5-1.3c.7-.3,1.4-.5,2.3-.5,1.2,0,2.3.3,3,.9.8.6,1.2,1.4,1.3,2.5h-1.9c0-.5-.3-1-.8-1.3-.5-.4-1.1-.6-1.9-.6s-1.3.2-1.8.6c-.5.4-.7.9-.7,1.6s.1.9.4,1.2.6.5,1,.7c.4.2,1,.3,1.7.5.9.2,1.6.5,2.1.7s1,.6,1.4,1.1c.4.5.6,1.1.6,2s-.2,1.2-.5,1.8-.8,1-1.5,1.4c-.7.4-1.5.5-2.4.5s-1.7-.2-2.3-.5Z"/>
    <path class="cls-2" d="M138.3,56.5c.6-1,1.4-1.8,2.4-2.4,1-.6,2.1-.9,3.3-.9s2.7.3,3.8,1,1.9,1.7,2.3,3h-2.1c-.4-.8-.9-1.4-1.6-1.8-.7-.4-1.5-.6-2.5-.6s-1.7.2-2.5.6c-.7.4-1.3,1-1.7,1.8s-.6,1.7-.6,2.8.2,2,.6,2.8,1,1.4,1.7,1.8c.7.4,1.6.6,2.5.6s1.8-.2,2.5-.6c.7-.4,1.2-1,1.6-1.8h2.1c-.5,1.3-1.3,2.2-2.3,2.9-1.1.7-2.3,1-3.8,1s-2.3-.3-3.3-.9-1.8-1.4-2.4-2.4c-.6-1-.9-2.2-.9-3.5s.3-2.4.9-3.5Z"/>
    <path class="cls-2" d="M154.4,53.4v8.4c0,1.2.3,2,.9,2.6.6.6,1.4.9,2.4.9s1.8-.3,2.4-.9c.6-.6.9-1.4.9-2.6v-8.4h1.7v8.3c0,1.1-.2,2-.7,2.8-.4.8-1,1.3-1.8,1.7-.8.4-1.6.5-2.5.5s-1.8-.2-2.5-.5c-.8-.4-1.3-.9-1.8-1.7-.4-.8-.7-1.7-.7-2.8v-8.3h1.7Z"/>
    <path class="cls-2" d="M167.3,54.8v4.4h4.8v1.4h-4.8v4.5h5.4v1.4h-7.1v-13.2h7.1v1.4h-5.4Z"/>
    <path class="cls-2" d="M177,65.2h4.6v1.4h-6.3v-13.2h1.7v11.8Z"/>
    <path class="cls-2" d="M191.2,63.6h-5.8l-1.1,2.9h-1.8l4.8-13.1h2l4.8,13.1h-1.8l-1.1-2.9ZM190.7,62.2l-2.4-6.7-2.4,6.7h4.8Z"/>
  </g>
  <g class="cls-1">
    <path class="cls-2" d="M125.1,76.9c1.1.5,1.9,1.3,2.4,2.3.6,1,.8,2.2.8,3.5s-.3,2.5-.8,3.5c-.6,1-1.4,1.7-2.4,2.3-1.1.5-2.3.8-3.7.8h-4.1v-13.2h4.1c1.4,0,2.7.3,3.7.8ZM125.3,86.5c.9-.9,1.3-2.2,1.3-3.8s-.5-2.9-1.4-3.8-2.2-1.4-3.9-1.4h-2.4v10.4h2.4c1.7,0,3-.5,3.9-1.4Z"/>
    <path class="cls-2" d="M132.4,77.5v4.4h4.8v1.4h-4.8v4.5h5.4v1.4h-7.1v-13.2h7.1v1.4h-5.4Z"/>
    <path class="cls-2" d="M153.3,86.3h-5.8l-1.1,2.9h-1.8l4.8-13.1h2l4.8,13.1h-1.8l-1.1-2.9ZM152.8,84.9l-2.4-6.7-2.4,6.7h4.8Z"/>
    <path class="cls-2" d="M160.1,88.9c-.7-.3-1.2-.7-1.6-1.3-.4-.5-.6-1.2-.6-1.9h1.8c0,.6.3,1.1.8,1.6s1.1.6,2,.6,1.5-.2,1.9-.6.7-.9.7-1.6-.1-.9-.4-1.2c-.3-.3-.6-.6-1-.7-.4-.2-1-.3-1.7-.5-.9-.2-1.6-.5-2.1-.7-.5-.2-1-.6-1.3-1.1-.4-.5-.6-1.1-.6-2s.2-1.4.5-1.9.9-1,1.5-1.3,1.4-.5,2.3-.5c1.2,0,2.3.3,3,.9.8.6,1.2,1.4,1.3,2.5h-1.9c0-.5-.3-1-.8-1.3-.5-.4-1.1-.6-1.9-.6s-1.3.2-1.8.6c-.5.4-.7.9-.7,1.6s.1.9.4,1.2.6.5,1,.7c.4.2,1,.3,1.7.5.9.2,1.6.5,2.1.7s1,.6,1.4,1.1c.4.5.6,1.1.6,2s-.2,1.2-.5,1.8-.8,1-1.5,1.4c-.7.4-1.5.5-2.4.5s-1.7-.2-2.3-.5Z"/>
    <path class="cls-2" d="M171.1,77.5v4.4h4.8v1.4h-4.8v4.5h5.4v1.4h-7.1v-13.2h7.1v1.4h-5.4Z"/>
    <path class="cls-2" d="M180.9,88.9c-.7-.3-1.2-.7-1.6-1.3-.4-.5-.6-1.2-.6-1.9h1.8c0,.6.3,1.1.8,1.6s1.1.6,2,.6,1.5-.2,1.9-.6.7-.9.7-1.6-.1-.9-.4-1.2c-.3-.3-.6-.6-1-.7-.4-.2-1-.3-1.7-.5-.9-.2-1.6-.5-2.1-.7-.5-.2-1-.6-1.3-1.1-.4-.5-.6-1.1-.6-2s.2-1.4.5-1.9.9-1,1.5-1.3c.7-.3,1.4-.5,2.3-.5,1.2,0,2.3.3,3,.9.8.6,1.2,1.4,1.3,2.5h-1.9c0-.5-.3-1-.8-1.3-.5-.4-1.1-.6-1.9-.6s-1.3.2-1.8.6c-.5.4-.7.9-.7,1.6s.1.9.4,1.2.6.5,1,.7,1,.3,1.7.5c.9.2,1.6.5,2.1.7s1,.6,1.4,1.1c.4.5.6,1.1.6,2s-.2,1.2-.5,1.8-.8,1-1.5,1.4-1.5.5-2.4.5-1.7-.2-2.3-.5Z"/>
    <path class="cls-2" d="M192.8,88.6c-1-.6-1.8-1.4-2.4-2.4-.6-1-.9-2.2-.9-3.5s.3-2.4.9-3.5c.6-1,1.4-1.8,2.4-2.4,1-.6,2.1-.9,3.4-.9s2.4.3,3.4.9c1,.6,1.8,1.4,2.4,2.4.6,1,.9,2.2.9,3.5s-.3,2.5-.9,3.5c-.6,1-1.4,1.8-2.4,2.4-1,.6-2.1.9-3.4.9s-2.3-.3-3.4-.9ZM198.6,87.3c.7-.4,1.3-1,1.7-1.8.4-.8.6-1.7.6-2.8s-.2-2-.6-2.8c-.4-.8-1-1.4-1.7-1.8-.7-.4-1.6-.6-2.5-.6s-1.8.2-2.5.6c-.7.4-1.3,1-1.7,1.8s-.6,1.7-.6,2.8.2,2,.6,2.8c.4.8,1,1.4,1.7,1.8.7.4,1.6.6,2.5.6s1.8-.2,2.5-.6Z"/>
    <path class="cls-2" d="M212,89.3l-3.1-5.4h-2.1v5.4h-1.7v-13.2h4.3c1,0,1.8.2,2.5.5s1.2.8,1.5,1.4c.3.6.5,1.2.5,2s-.3,1.7-.8,2.4c-.5.7-1.3,1.2-2.4,1.4l3.3,5.5h-2.1ZM206.8,82.5h2.5c.9,0,1.6-.2,2.1-.7.5-.5.7-1.1.7-1.8s-.2-1.4-.7-1.8c-.5-.4-1.2-.6-2.1-.6h-2.5v5Z"/>
    <path class="cls-2" d="M218.3,77.5v4.4h4.8v1.4h-4.8v4.5h5.4v1.4h-7.1v-13.2h7.1v1.4h-5.4Z"/>
    <path class="cls-2" d="M228.1,88.9c-.7-.3-1.2-.7-1.6-1.3-.4-.5-.6-1.2-.6-1.9h1.8c0,.6.3,1.1.8,1.6s1.1.6,2,.6,1.5-.2,1.9-.6.7-.9.7-1.6-.1-.9-.4-1.2c-.3-.3-.6-.6-1-.7-.4-.2-1-.3-1.7-.5-.9-.2-1.6-.5-2.1-.7-.5-.2-1-.6-1.3-1.1-.4-.5-.6-1.1-.6-2s.2-1.4.5-1.9.9-1,1.5-1.3c.7-.3,1.4-.5,2.3-.5,1.2,0,2.3.3,3,.9.8.6,1.2,1.4,1.3,2.5h-1.9c0-.5-.3-1-.8-1.3-.5-.4-1.1-.6-1.9-.6s-1.3.2-1.8.6c-.5.4-.7.9-.7,1.6s.1.9.4,1.2.6.5,1,.7,1,.3,1.7.5c.9.2,1.6.5,2.1.7s1,.6,1.4,1.1c.4.5.6,1.1.6,2s-.2,1.2-.5,1.8-.8,1-1.5,1.4-1.5.5-2.4.5-1.7-.2-2.3-.5Z"/>
  </g>
  <g class="cls-1">
    <path class="cls-2" d="M123.1,19.2v7.1h9.5v4.5h-9.5v7.5h10.7v4.6h-16.3V14.6h16.3v4.6h-10.7Z"/>
    <path class="cls-2" d="M156.5,16.4c2.2,1.2,4,2.8,5.2,4.9,1.2,2.1,1.8,4.6,1.8,7.4s-.6,5.3-1.8,7.4c-1.2,2.1-3,3.7-5.2,4.9-2.2,1.2-4.8,1.7-7.8,1.7h-9.8V14.6h9.8c3,0,5.6.6,7.8,1.7ZM155.4,35.6c1.6-1.6,2.4-3.9,2.4-6.8s-.8-5.2-2.4-6.9c-1.6-1.7-3.9-2.5-6.8-2.5h-4v18.6h4c3,0,5.2-.8,6.8-2.4Z"/>
    <path class="cls-2" d="M185,37.4h-11.2l-1.9,5.4h-5.9l10.1-28.2h6.6l10.1,28.2h-6l-1.9-5.4ZM183.5,32.9l-4.1-11.8-4.1,11.8h8.1Z"/>
    <path class="cls-2" d="M201,42c-1.6-.7-2.8-1.6-3.7-2.9s-1.4-2.8-1.4-4.5h6c0,1.2.5,2.1,1.2,2.7.7.7,1.8,1,3,1s2.4-.3,3.1-.9,1.1-1.5,1.1-2.5-.3-1.5-.8-2.1c-.5-.5-1.1-1-1.9-1.3-.8-.3-1.8-.7-3.2-1-1.8-.5-3.3-1.1-4.5-1.6s-2.1-1.3-2.9-2.4c-.8-1.1-1.2-2.5-1.2-4.3s.4-3.1,1.2-4.4c.8-1.2,2-2.2,3.5-2.8s3.2-1,5.2-1c2.9,0,5.3.7,7.1,2.1,1.8,1.4,2.8,3.4,3,5.9h-6.2c0-1-.5-1.8-1.2-2.4-.8-.6-1.8-.9-3-.9s-2,.3-2.6.8c-.7.6-1,1.4-1,2.5s.2,1.4.7,1.9c.5.5,1.1.9,1.9,1.2.7.3,1.8.7,3.1,1.1,1.8.5,3.3,1.1,4.5,1.6s2.1,1.3,3,2.4c.8,1.1,1.2,2.5,1.2,4.2s-.4,2.9-1.2,4.2c-.8,1.3-1.9,2.3-3.4,3.1-1.5.8-3.3,1.1-5.4,1.1s-3.7-.3-5.3-1Z"/>
    <path class="cls-2" d="M226.8,19.2v7.1h9.5v4.5h-9.5v7.5h10.7v4.6h-16.3V14.6h16.3v4.6h-10.7Z"/>
  </g>
  <path class="cls-2" d="M90.4,78.6l-32-32c-1.6-1.6-4.3-1.6-5.9,0l-31.6,31.6c-1.6,1.6-1.6,4.3,0,5.9l6.3,6.3,26.3-26.3c1.1-1.1,2.9-1.1,4,0l26.8,26.8,6.3-6.3c1.6-1.6,1.6-4.3,0-5.9h0Z"/>
  <path class="cls-2" d="M30.8,49.3v-28.1c0-1.5,1.2-2.8,2.8-2.8h15.3v12.8l3.6-3.6c1.6-1.6,4.3-1.6,5.9,0l3.6,3.6v-12.8h15.3c1.5,0,2.8,1.2,2.8,2.8v28.1l13.1,13.1V9.5c0-2.3-1.9-4.2-4.2-4.2H21.9c-2.3,0-4.2,1.9-4.2,4.2v52.9l13.1-13.1h0Z"/>
  <path class="cls-2" d="M64.9,90.6l-7.4,7.4c-1.1,1.1-2.9,1.1-4,0l-7.4-7.4-9.3,9.3,15.8,15.8c1.6,1.6,4.3,1.6,5.9,0l15.7-15.8-9.3-9.3h0Z"/>
</svg>