<svg xmlns:xlink="http://www.w3.org/1999/xlink" xmlns="http://www.w3.org/2000/svg" width="230" height="39.47" viewBox="0 0 169.615 29.113">
  <g id="logo-infoautonomos" transform="translate(-0.801 -2.699)">
    <path id="Trazado_82" data-name="Trazado 82" d="M30.352,11.623a6.494,6.494,0,0,1-.647-1.1,15.187,15.187,0,0,0-1.552-2.393,12.879,12.879,0,0,0-1.229-1.358S21.1,1.083,13.151,3.152c-.065,0-.194.065-.259.065A14.479,14.479,0,0,0,7.913,5.739C5.2,5.674,2.352,6,.8,7.356L4.68,9.166a14.6,14.6,0,0,0,15.843,22.18,6.006,6.006,0,0,0,.841-.259,12.425,12.425,0,0,0,2.522-1.1,13.657,13.657,0,0,0,4.785-4.2h0a5.952,5.952,0,0,0-4.2-.582,5.858,5.858,0,0,0-.97-3.751,6.28,6.28,0,0,0-3.815,3.427,8.987,8.987,0,0,0-.841,4.785h0a7.783,7.783,0,0,1-7.76-7.76,7.943,7.943,0,0,1,.841-3.492l4.527-1.164-1.94,4.4c5.949-1.552,7.307-4.4,7.566-5.82l8.018-2.069.776-.194,1.423-.388A1.923,1.923,0,0,0,30.352,11.623Zm-10.346,1.1a1.066,1.066,0,1,1,.776-1.293A1.058,1.058,0,0,1,20.005,12.723Z" transform="translate(0 0)" fill="#41e0e0"/>
    <g id="Grupo_70" data-name="Grupo 70" transform="translate(41.474 8.39)">
      <path id="Trazado_83" data-name="Trazado 83" d="M65.317,11.5A1.617,1.617,0,1,1,63.7,13.117,1.562,1.562,0,0,1,65.317,11.5Zm1.164,13.45H64.153V15.768h2.328Z" transform="translate(-63.7 -11.5)" fill="#01265f"/>
      <path id="Trazado_84" data-name="Trazado 84" d="M73.528,18.029v1.487h.259A2.907,2.907,0,0,1,76.7,17.9c2.069,0,3.557,1.487,3.557,3.88v5.5H77.925V22.039a1.874,1.874,0,0,0-2.069-2.069c-1.487,0-2.328.905-2.328,2.587v4.721H71.2V18.029Z" transform="translate(-66.35 -13.761)" fill="#01265f"/>
      <path id="Trazado_85" data-name="Trazado 85" d="M89.128,16.051V14.175A1.8,1.8,0,0,1,91,12.3H93.4v2H91.973c-.323,0-.517.194-.517.582v1.229h2.393v2H91.456V25.3H89.128V18.055H86.8v-2Z" transform="translate(-71.863 -11.783)" fill="#01265f"/>
      <path id="Trazado_86" data-name="Trazado 86" d="M103.685,17.7a4.635,4.635,0,0,1,4.785,4.85,4.786,4.786,0,1,1-9.57,0A4.672,4.672,0,0,1,103.685,17.7Zm0,7.63a2.474,2.474,0,0,0,2.457-2.781,2.476,2.476,0,1,0-4.915,0A2.509,2.509,0,0,0,103.685,25.33Z" transform="translate(-76.138 -13.691)" fill="#01265f"/>
      <path id="Trazado_87" data-name="Trazado 87" d="M120.185,17.7c2.522,0,4.139,1.423,4.139,3.557v5.884H122V25.848h-.259a2.921,2.921,0,0,1-2.91,1.552c-2.069,0-3.427-1.1-3.427-2.845,0-1.487,1.293-2.457,3.039-2.651l3.492-.388v-.194c0-.841-.647-1.552-1.94-1.552a2.88,2.88,0,0,0-2.587,1.617l-1.875-1.229A5.389,5.389,0,0,1,120.185,17.7Zm-.776,7.76a2.239,2.239,0,0,0,2.522-2.2v-.194l-2.845.323c-.841.129-1.293.453-1.293.97C117.857,25.007,118.375,25.46,119.409,25.46Z" transform="translate(-81.968 -13.691)" fill="#01265f"/>
      <path id="Trazado_88" data-name="Trazado 88" d="M138.625,27.247V25.76h-.259a2.907,2.907,0,0,1-2.91,1.617c-2.069,0-3.557-1.487-3.557-3.88V18h2.328v5.238a1.874,1.874,0,0,0,2.069,2.069c1.487,0,2.328-.905,2.328-2.587V18h2.328v9.182h-2.328Z" transform="translate(-87.799 -13.797)" fill="#01265f"/>
      <path id="Trazado_89" data-name="Trazado 89" d="M149.928,16.545V13.7h2.328v2.845h2.522v2h-2.522v4.656c0,.388.194.582.517.582h1.487v2h-2.522a1.731,1.731,0,0,1-1.811-1.811V18.55H147.6v-2Z" transform="translate(-93.346 -12.277)" fill="#01265f"/>
      <path id="Trazado_90" data-name="Trazado 90" d="M164.984,15.757a4.635,4.635,0,0,1,4.785,4.85,4.786,4.786,0,1,1-9.57,0A4.6,4.6,0,0,1,164.984,15.757Zm0,7.63a2.474,2.474,0,0,0,2.457-2.781,2.476,2.476,0,1,0-4.915,0A2.474,2.474,0,0,0,164.984,23.387Zm2.2-11.187-1.617,2.393h-2l.97-2.393Z" transform="translate(-97.798 -11.747)" fill="#01265f"/>
      <path id="Trazado_91" data-name="Trazado 91" d="M179.628,18.029v1.487h.259A2.907,2.907,0,0,1,182.8,17.9c2.069,0,3.557,1.487,3.557,3.88v5.5h-2.328V22.039a1.874,1.874,0,0,0-2.069-2.069c-1.487,0-2.328.905-2.328,2.587v4.721H177.3V18.029Z" transform="translate(-103.841 -13.761)" fill="#01265f"/>
      <path id="Trazado_92" data-name="Trazado 92" d="M198.384,17.7a4.635,4.635,0,0,1,4.785,4.85,4.786,4.786,0,1,1-9.57,0A4.6,4.6,0,0,1,198.384,17.7Zm0,7.63a2.474,2.474,0,0,0,2.457-2.781,2.476,2.476,0,1,0-4.915,0A2.474,2.474,0,0,0,198.384,25.33Z" transform="translate(-109.6 -13.691)" fill="#01265f"/>
      <path id="Trazado_93" data-name="Trazado 93" d="M213.063,18.029v1.358h.259a2.434,2.434,0,0,1,2.457-1.487,2.6,2.6,0,0,1,2.457,1.552h.259a2.63,2.63,0,0,1,2.587-1.552,3.028,3.028,0,0,1,3.039,3.169v6.143h-2.328V21.2a1.328,1.328,0,0,0-1.487-1.358,1.562,1.562,0,0,0-1.681,1.681v5.626H216.3V21.2a1.328,1.328,0,0,0-1.487-1.358,1.562,1.562,0,0,0-1.681,1.681v5.626H210.8V18.029Z" transform="translate(-115.679 -13.761)" fill="#01265f"/>
      <path id="Trazado_94" data-name="Trazado 94" d="M238.385,17.7a4.635,4.635,0,0,1,4.785,4.85,4.786,4.786,0,1,1-9.57,0A4.672,4.672,0,0,1,238.385,17.7Zm0,7.63a2.474,2.474,0,0,0,2.457-2.781,2.476,2.476,0,1,0-4.914,0A2.509,2.509,0,0,0,238.385,25.33Z" transform="translate(-123.735 -13.691)" fill="#01265f"/>
      <path id="Trazado_95" data-name="Trazado 95" d="M253.7,17.7a5.911,5.911,0,0,1,4.462,2.134l-1.681,1.358a3.736,3.736,0,0,0-2.845-1.552c-.841,0-1.358.388-1.358.905,0,.647.711.841,1.617.97l.323.065c2.975.323,4.009,1.1,4.009,2.781,0,1.811-1.681,3.1-4.139,3.1a5.392,5.392,0,0,1-4.785-2.587l1.875-1.164a3.241,3.241,0,0,0,2.975,1.811c.97,0,1.811-.388,1.811-1.1s-.97-.841-1.94-.905l-.323-.065c-2.587-.323-3.751-1.1-3.751-2.845C250.011,18.8,251.563,17.7,253.7,17.7Z" transform="translate(-129.283 -13.691)" fill="#01265f"/>
    </g>
  </g>
</svg>