<svg xmlns:xlink="http://www.w3.org/1999/xlink" xmlns="http://www.w3.org/2000/svg" width="294" height="55" viewBox="0 0 294 55" fill="none">
<path d="M7.12282 1.18083H0V54.2833H14.1981V46.8435H7.12282V1.18083Z" fill="#050505"/>
<path d="M75.5305 0.532394C68.734 0.532394 64.8667 6.02693 64.8667 14.6339V40.7688C64.8667 49.4986 68.7815 54.9317 75.5305 54.9317C82.2795 54.9317 86.1332 49.4304 86.1332 41.2193V26.21H75.1431V33.6498H79.0036V41.151C79.0036 44.9665 77.6987 46.9732 75.5237 46.9732C73.2401 46.9732 72.0983 45.0347 72.0983 41.151V14.2449C72.0983 10.4294 73.2401 8.49094 75.5237 8.49094C77.6443 8.49094 78.8949 10.4294 78.8949 14.2449V19.4868H86.1264V14.3131C86.1264 5.97233 82.1028 0.53922 75.5237 0.53922L75.5305 0.532394Z" fill="#050505"/>
<path d="M32.4808 27.3021L38.1151 30.6602L55.5076 1.24225H25.0249V7.82204H44.001L32.4808 27.3021Z" fill="#050505"/>
<path d="M49.5673 23.0498L46.203 28.8992C48.14 30.9742 49.3294 33.759 49.3294 36.8168C49.3294 43.2192 44.1436 48.427 37.7684 48.427C33.0516 48.427 28.9873 45.5672 27.193 41.4855L20.7974 43.0895C23.3529 50.031 29.9864 55 37.7752 55C47.7594 55 55.8814 46.8435 55.8814 36.81C55.8814 31.3087 53.4278 26.3806 49.5673 23.043V23.0498Z" fill="#050505"/>
<path d="M122.318 0.464157L115.984 35.4381H115.705L109.371 0.464157H106.401L103.757 54.2287H106.673L108.494 9.43971H108.712L115.155 43.6901H116.48L122.978 9.43971H123.195L124.962 54.2287H127.878L125.288 0.464157H122.318Z" fill="#050505"/>
<path d="M138.949 0.334457L130.134 54.2287H133.166L135.809 37.1376H145.393L148.036 54.2287H151.122L142.368 0.334457H138.956H138.949ZM136.36 33.8614L140.492 7.20775H140.71L144.842 33.8614H136.36Z" fill="#050505"/>
<path d="M161.807 0.464157H154.534V54.2287H157.511V28.6194H162.581C165.83 28.6194 167.923 31.3018 167.923 35.4313V54.2287H171.009V35.4995C171.009 31.2404 169.079 28.1007 165.83 26.9881C169.303 25.7459 171.063 22.5993 171.063 17.4256V10.682C171.063 4.19771 167.536 0.464157 161.807 0.464157ZM168.032 17.9511C168.032 22.8655 165.606 25.35 162.14 25.35H157.511V3.7404H161.807C165.551 3.7404 168.032 6.23172 168.032 10.8799V17.9511Z" fill="#050505"/>
<path d="M193.975 0.464157H190.447L178.662 24.6333H178.553L178.608 0.464157H175.631V54.2287H178.608L178.553 27.8413H178.662L190.672 54.2287H194.254L181.197 25.9438L193.975 0.464157Z" fill="#050505"/>
<path d="M199.976 28.1007H209.838V24.8244H199.976V3.7404H210.28V0.464157H197.006V54.2287H210.606V50.8911H199.976V28.1007Z" fill="#050505"/>
<path d="M212.923 3.7404H220.855V54.2287H223.879V3.7404H231.865V0.464157H212.923V3.7404Z" fill="#050505"/>
<path d="M238.479 0.464157H235.502V54.2287H238.479V0.464157Z" fill="#050505"/>
<path d="M260.676 44.8027H260.513L246.906 0.464157H243.984V54.2287H246.961L246.798 9.63082H246.961L260.513 54.2287H263.483V0.464157H260.568L260.676 44.8027Z" fill="#050505"/>
<path d="M277.749 0.00682551C272.183 0.00682551 268.554 4.78469 268.554 12.4497V42.2499C268.554 49.915 272.19 54.6929 277.749 54.6929C283.309 54.6929 286.891 49.9764 286.891 42.4479V27.5819H276.479V30.9196H283.86V42.3796C283.86 48.0789 281.27 51.3483 277.743 51.3483C274.215 51.3483 271.626 48.1404 271.626 42.3796V12.2518C271.626 6.55249 274.052 3.3445 277.743 3.3445C281.433 3.3445 283.86 6.68218 283.86 12.2518V17.6849H286.891V12.3132C286.891 4.78469 283.2 0 277.749 0V0.00682551Z" fill="#050505"/>
<path d="M292.015 50.0378C289.317 50.0378 289.317 54.686 292.015 54.686C293.171 54.686 294 53.6349 294 52.3926C294 51.0821 293.178 50.0378 292.015 50.0378Z" fill="#050505"/>
</svg>