<svg xmlns:xlink="http://www.w3.org/1999/xlink" xmlns="http://www.w3.org/2000/svg" width="222" height="42" viewBox="0 0 222 42" fill="none">
<path d="M5.37846 0.901733H0V41.4527H10.721V35.7714H5.37846V0.901733Z" fill="white"/>
<path d="M57.0332 0.406555C51.9011 0.406555 48.9809 4.60239 48.9809 11.175V31.1325C48.9809 37.799 51.937 41.9479 57.0332 41.9479C62.1294 41.9479 65.0393 37.7468 65.0393 31.4765V20.0149H56.7407V25.6962H59.6557V31.4244C59.6557 34.338 58.6704 35.8704 57.0281 35.8704C55.3037 35.8704 54.4415 34.3902 54.4415 31.4244V10.8779C54.4415 7.96426 55.3037 6.48399 57.0281 6.48399C58.6293 6.48399 59.5736 7.96426 59.5736 10.8779V14.8809H65.0342V10.93C65.0342 4.56069 61.996 0.411767 57.0281 0.411767L57.0332 0.406555Z" fill="white"/>
<path d="M24.5264 20.8489L28.7809 23.4133L41.914 0.948639H18.8965V5.97321H33.2253L24.5264 20.8489Z" fill="white"/>
<path d="M37.4285 17.6016L34.8881 22.0685C36.3508 23.653 37.2489 25.7796 37.2489 28.1147C37.2489 33.0037 33.3331 36.9806 28.5192 36.9806C24.9575 36.9806 21.8885 34.7967 20.5336 31.6798L15.7043 32.9047C17.634 38.2055 22.6429 42 28.5243 42C36.0634 42 42.1963 35.7714 42.1963 28.1095C42.1963 23.9084 40.3436 20.1452 37.4285 17.5964V17.6016Z" fill="white"/>
<path d="M92.3627 0.354431L87.5796 27.0618H87.3692L82.5861 0.354431H80.3433L78.3469 41.411H80.5486L81.924 7.20849H82.0882L86.9535 33.3634H87.9543L92.8606 7.20849H93.0248L94.3591 41.411H96.5608L94.6055 0.354431H92.3627Z" fill="white"/>
<path d="M104.921 0.255402L98.2646 41.411H100.554L102.55 28.3596H109.786L111.783 41.411H114.113L107.502 0.255402H104.926H104.921ZM102.966 25.8578L106.086 5.5041H106.25L109.371 25.8578H102.966Z" fill="white"/>
<path d="M122.18 0.354431H116.689V41.411H118.937V21.8548H122.765C125.219 21.8548 126.799 23.9032 126.799 27.0566V41.411H129.129V27.1087C129.129 23.8563 127.672 21.4587 125.219 20.6091C127.841 19.6605 129.17 17.2576 129.17 13.3068V8.15711C129.17 3.20551 126.507 0.354431 122.18 0.354431ZM126.881 13.7081C126.881 17.4609 125.049 19.3582 122.432 19.3582H118.937V2.85629H122.18C125.008 2.85629 126.881 4.75875 126.881 8.30827V13.7081Z" fill="white"/>
<path d="M146.471 0.354431H143.807L134.908 18.8109H134.826L134.867 0.354431H132.619V41.411H134.867L134.826 21.2606H134.908L143.976 41.411H146.681L136.822 19.8116L146.471 0.354431Z" fill="white"/>
<path d="M151.002 21.4587H158.449V18.9568H151.002V2.85629H158.783V0.354431H148.76V41.411H159.029V38.8622H151.002V21.4587Z" fill="white"/>
<path d="M160.779 2.85629H166.768V41.411H169.052V2.85629H175.082V0.354431H160.779V2.85629Z" fill="white"/>
<path d="M180.076 0.354431H177.828V41.411H180.076V0.354431Z" fill="white"/>
<path d="M196.837 34.213H196.714L186.44 0.354431H184.233V41.411H186.481L186.357 7.35443H186.481L196.714 41.411H198.957V0.354431H196.755L196.837 34.213Z" fill="white"/>
<path d="M209.729 0.00521221C205.526 0.00521221 202.785 3.65376 202.785 9.50707V32.2636C202.785 38.1169 205.531 41.7654 209.729 41.7654C213.927 41.7654 216.632 38.1638 216.632 32.4147V21.0625H208.769V23.6113H214.343V32.3626C214.343 36.7148 212.388 39.2115 209.724 39.2115C207.06 39.2115 205.105 36.7617 205.105 32.3626V9.35592C205.105 5.00372 206.937 2.55398 209.724 2.55398C212.511 2.55398 214.343 5.10276 214.343 9.35592V13.5048H216.632V9.40283C216.632 3.65376 213.845 0 209.729 0V0.00521221Z" fill="white"/>
<path d="M220.501 38.2107C218.464 38.2107 218.464 41.7602 220.501 41.7602C221.374 41.7602 222 40.9576 222 40.0089C222 39.0082 221.379 38.2107 220.501 38.2107Z" fill="white"/>
</svg>