<svg xmlns:xlink="http://www.w3.org/1999/xlink" class="" viewBox="0 0 576 208" fill="none" xmlns="http://www.w3.org/2000/svg"><g fill="none"><path d="M43.5595 0.867268H67.6228L24.0633 162.453H0L43.5595 0.867268Z" fill="#E5FF04"></path><path d="M57.7537 106.591C57.7537 71.5869 81.0962 47.3739 113.345 47.3739C145.593 47.3739 166.774 69.6675 166.774 105.39V114.02H81.3389C82.7804 133.442 95.0547 145.186 114.308 145.186C133.562 145.186 141.982 135.837 146.314 124.804L167.252 132.958C159.552 150.46 143.424 164.365 114.308 164.365C79.4121 164.365 57.7537 141.347 57.7537 106.591ZM142.468 96.2833C141.504 76.8617 130.679 66.5538 112.867 66.5538C95.0547 66.5538 83.2656 77.8214 80.8607 96.2833H142.468Z" fill="#E5FF04"></path><path d="M179.761 106.591C179.761 71.5869 203.104 47.3739 235.352 47.3739C267.601 47.3739 288.781 69.6675 288.781 105.39V114.02H203.346C204.788 133.442 217.062 145.186 236.316 145.186C255.569 145.186 263.99 135.837 268.322 124.804L289.259 132.958C281.559 150.46 265.432 164.365 236.316 164.365C201.42 164.365 179.761 141.347 179.761 106.591ZM264.475 96.2833C263.512 76.8617 252.686 66.5538 234.874 66.5538C217.062 66.5538 205.273 77.8214 202.868 96.2833H264.475Z" fill="#E5FF04"></path><path d="M291.429 49.2933H315.978L346.057 134.401L374.694 49.2933H399.486L357.132 162.688H335.231L291.429 49.2933Z" fill="#E5FF04"></path><path d="M379.504 186.424H389.852C405.494 186.424 410.069 180.908 424.99 157.896L411.51 49.2933H435.573L443.759 131.764L492.613 49.2933H519.324L443.273 170.6C426.189 197.692 415.114 208 387.682 208H373.724L379.497 186.424H379.504Z" fill="#E5FF04"></path><path d="M576 0H556.026L570.948 18.9382L560.843 56.8145H540.868L550.973 18.9382H513.672L518.725 0H556.026" fill="#E5FF04"></path></g></svg>
